/* XPM */
static char * bottom_left_active_xpm[] = {
"52 52 3 1",
" 	c None",
".	c #009688",
"+	c #263238 s active_color_2",
"..++++++++++++++++++                                ",
"..++++++++++++++++++                                ",
"..++++++++++++++++++                                ",
"..++++++++++++++++++                                ",
"..++++++++++++++++++                                ",
"..++++++++++++++++++                                ",
"..++++++++++++++++++                                ",
"..++++++++++++++++++                                ",
"..++++++++++++++++++                                ",
"..++++++++++++++++++                                ",
"..++++++++++++++++++                                ",
"..++++++++++++++++++                                ",
"..++++++++++++++++++                                ",
"..++++++++++++++++++                                ",
"..++++++++++++++++++                                ",
"..++++++++++++++++++                                ",
"..++++++++++++++++++                                ",
"..++++++++++++++++++                                ",
"..++++++++++++++++++                                ",
"..++++++++++++++++++                                ",
"..++++++++++++++++++                                ",
"..++++++++++++++++++                                ",
"..++++++++++++++++++                                ",
"..++++++++++++++++++                                ",
"..++++++++++++++++++                                ",
"..++++++++++++++++++                                ",
"..++++++++++++++++++                                ",
"..++++++++++++++++++                                ",
"..++++++++++++++++++                                ",
"..++++++++++++++++++                                ",
"..++++++++++++++++++                                ",
"..++++++++++++++++++                                ",
"..++++++++++++++++++++++++++++++++++++++++++++++++++",
"..++++++++++++++++++++++++++++++++++++++++++++++++++",
"..++++++++++++++++++++++++++++++++++++++++++++++++++",
"..++++++++++++++++++++++++++++++++++++++++++++++++++",
"..++++++++++++++++++++++++++++++++++++++++++++++++++",
"..++++++++++++++++++++++++++++++++++++++++++++++++++",
"..++++++++++++++++++++++++++++++++++++++++++++++++++",
"..++++++++++++++++++++++++++++++++++++++++++++++++++",
"..++++++++++++++++++++++++++++++++++++++++++++++++++",
"..++++++++++++++++++++++++++++++++++++++++++++++++++",
"..++++++++++++++++++++++++++++++++++++++++++++++++++",
"..++++++++++++++++++++++++++++++++++++++++++++++++++",
"..++++++++++++++++++++++++++++++++++++++++++++++++++",
"..++++++++++++++++++++++++++++++++++++++++++++++++++",
"....................................................",
"....................................................",
" ...................................................",
"  ..................................................",
"   .................................................",
"    ................................................"};
