/* XPM */
static char * left_inactive_xpm[] = {
"16 48 3 1",
" 	c None",
".	c #009688",
"+	c #263238 s active_color_2",
"..++++++++++++++",
"..++++++++++++++",
"..++++++++++++++",
"..++++++++++++++",
"..++++++++++++++",
"..++++++++++++++",
"..++++++++++++++",
"..++++++++++++++",
"..++++++++++++++",
"..++++++++++++++",
"..++++++++++++++",
"..++++++++++++++",
"..++++++++++++++",
"..++++++++++++++",
"..++++++++++++++",
"..++++++++++++++",
"..++++++++++++++",
"..++++++++++++++",
"..++++++++++++++",
"..++++++++++++++",
"..++++++++++++++",
"..++++++++++++++",
"..++++++++++++++",
"..++++++++++++++",
"..++++++++++++++",
"..++++++++++++++",
"..++++++++++++++",
"..++++++++++++++",
"..++++++++++++++",
"..++++++++++++++",
"..++++++++++++++",
"..++++++++++++++",
"..++++++++++++++",
"..++++++++++++++",
"..++++++++++++++",
"..++++++++++++++",
"..++++++++++++++",
"..++++++++++++++",
"..++++++++++++++",
"..++++++++++++++",
"..++++++++++++++",
"..++++++++++++++",
"..++++++++++++++",
"..++++++++++++++",
"..++++++++++++++",
"..++++++++++++++",
"..++++++++++++++",
"..++++++++++++++"};
