/* XPM */
static char * top_right_inactive_xpm[] = {
"20 96 3 1",
" 	c None",
".	c #f44336",
"+	c #263238 s active_color_2",
"................    ",
".................   ",
"++++++++++++++....  ",
"++++++++++++++..... ",
"++++++++++++++......",
"++++++++++++++......",
"++++++++++++++......",
"++++++++++++++......",
"++++++++++++++......",
"++++++++++++++......",
"++++++++++++++......",
"++++++++++++++......",
"++++++++++++++......",
"++++++++++++++......",
"++++++++++++++......",
"++++++++++++++......",
"++++++++++++++......",
"++++++++++++++......",
"++++++++++++++......",
"++++++++++++++......",
"++++++++++++++......",
"++++++++++++++......",
"++++++++++++++......",
"++++++++++++++......",
"++++++++++++++......",
"++++++++++++++......",
"++++++++++++++......",
"++++++++++++++......",
"++++++++++++++......",
"++++++++++++++......",
"++++++++++++++......",
"++++++++++++++......",
"++++++++++++++......",
"++++++++++++++......",
"++++++++++++++......",
"++++++++++++++......",
"++++++++++++++......",
"++++++++++++++......",
"++++++++++++++......",
"++++++++++++++......",
"++++++++++++++......",
"++++++++++++++......",
"++++++++++++++......",
"++++++++++++++......",
"++++++++++++++......",
"++++++++++++++......",
"++++++++++++++......",
"++++++++++++++......",
"++++++++++++++......",
"++++++++++++++......",
"++++++++++++++......",
"++++++++++++++......",
"++++++++++++++......",
"++++++++++++++......",
"++++++++++++++......",
"++++++++++++++......",
"++++++++++++++......",
"++++++++++++++......",
"++++++++++++++......",
"++++++++++++++......",
"++++++++++++++......",
"++++++++++++++......",
"++++++++++++++......",
"++++++++++++++......",
"++++++++++++++......",
"++++++++++++++......",
"++++++++++++++......",
"++++++++++++++......",
"++++++++++++++......",
"++++++++++++++......",
"++++++++++++++......",
"++++++++++++++......",
"++++++++++++++......",
"++++++++++++++......",
"++++++++++++++......",
"++++++++++++++......",
"++++++++++++++......",
"++++++++++++++......",
"++++++++++++++......",
"++++++++++++++......",
"++++++++++++++......",
"++++++++++++++......",
"++++++++++++++......",
"++++++++++++++......",
"++++++++++++++......",
"++++++++++++++......",
"++++++++++++++......",
"++++++++++++++......",
"++++++++++++++......",
"++++++++++++++......",
"++++++++++++++......",
"++++++++++++++......",
"++++++++++++++......",
"++++++++++++++......",
"++++++++++++++......",
"++++++++++++++......"};
