/* XPM */
static char * shade_toggled_inactive_xpm[] = {
"60 44 3 1",
" 	c None",
".	c #263238 s active_color_2",
"+	c #4caf50",
"............................................................",
"............................................................",
"............................................................",
"............................................................",
"............................................................",
"............................................................",
"............................................................",
"............................................................",
"............................................................",
"............................................................",
"............................................................",
"............................................................",
"................++++++++++++++++++++++++++++................",
"................++++++++++++++++++++++++++++................",
"................++++++++++++++++++++++++++++................",
"................++++++++++++++++++++++++++++................",
"............................................................",
"............................................................",
"..................++++................++++..................",
"..................+++++..............+++++..................",
"..................++++++............++++++..................",
"..................+++++++..........+++++++..................",
"...................+++++++........+++++++...................",
"....................+++++++......+++++++....................",
".....................+++++++....+++++++.....................",
"......................+++++++..+++++++......................",
".......................++++++++++++++.......................",
"........................++++++++++++........................",
".........................++++++++++.........................",
"..........................++++++++..........................",
"...........................++++++...........................",
"............................++++............................",
"............................................................",
"............................................................",
"............................................................",
"............................................................",
"............................................................",
"............................................................",
"............................................................",
"............................................................",
"............................................................",
"............................................................",
"............................................................",
"............................................................"};
