/* XPM */
static char * stick_pressed_xpm[] = {
"60 44 4 1",
" 	c None",
".	c #263238 s active_color_2",
"+	c #4caf50",
"@	c #FFFFFF",
"............................................................",
"............................................................",
"++++++++++++++++++++++++++++++++++++++++++++++++++++++++++++",
"++++++++++++++++++++++++++++++++++++++++++++++++++++++++++++",
"++++++++++++++++++++++++++++++++++++++++++++++++++++++++++++",
"++++++++++++++++++++++++++++++++++++++++++++++++++++++++++++",
"++++++++++++++++++++++++++++++++++++++++++++++++++++++++++++",
"++++++++++++++++++++++++++++++++++++++++++++++++++++++++++++",
"++++++++++++++++++++++++++++++++++++++++++++++++++++++++++++",
"++++++++++++++++++++++++++++++++++++++++++++++++++++++++++++",
"++++++++++++++++++++++++++++++++++++++++++++++++++++++++++++",
"++++++++++++++++++++++++++++++++++++++++++++++++++++++++++++",
"++++++++++++++++++@@@@@@@@@@@@@@@@@@@@@@@@++++++++++++++++++",
"+++++++++++++++++@@@@@@@@@@@@@@@@@@@@@@@@@@+++++++++++++++++",
"++++++++++++++++@@@@@@@@@@@@@@@@@@@@@@@@@@@@++++++++++++++++",
"++++++++++++++++@@@@@@@@@@@@@@@@@@@@@@@@@@@@++++++++++++++++",
"++++++++++++++++@@@@++++++++++++++++++++@@@@++++++++++++++++",
"++++++++++++++++@@@@++++++++++++++++++++@@@@++++++++++++++++",
"++++++++++++++++@@@@++++++++++++++++++++@@@@++++++++++++++++",
"++++++++++++++++@@@@++++++++++++++++++++@@@@++++++++++++++++",
"++++++++++++++++@@@@++++++++++++++++++++@@@@++++++++++++++++",
"++++++++++++++++@@@@++++++++++++++++++++@@@@++++++++++++++++",
"++++++++++++++++@@@@++++++++++++++++++++@@@@++++++++++++++++",
"++++++++++++++++@@@@++++++++++++++++++++@@@@++++++++++++++++",
"++++++++++++++++@@@@++++++++++++++++++++@@@@++++++++++++++++",
"++++++++++++++++@@@@++++++++++++++++++++@@@@++++++++++++++++",
"++++++++++++++++@@@@++++++++++++++++++++@@@@++++++++++++++++",
"++++++++++++++++@@@@++++++++++++++++++++@@@@++++++++++++++++",
"++++++++++++++++@@@@@@@@@@@@@@@@@@@@@@@@@@@@++++++++++++++++",
"++++++++++++++++@@@@@@@@@@@@@@@@@@@@@@@@@@@@++++++++++++++++",
"+++++++++++++++++@@@@@@@@@@@@@@@@@@@@@@@@@@+++++++++++++++++",
"++++++++++++++++++@@@@@@@@@@@@@@@@@@@@@@@@++++++++++++++++++",
"++++++++++++++++++++++++++++++++++++++++++++++++++++++++++++",
"++++++++++++++++++++++++++++++++++++++++++++++++++++++++++++",
"++++++++++++++++++++++++++++++++++++++++++++++++++++++++++++",
"++++++++++++++++++++++++++++++++++++++++++++++++++++++++++++",
"++++++++++++++++++++++++++++++++++++++++++++++++++++++++++++",
"++++++++++++++++++++++++++++++++++++++++++++++++++++++++++++",
"++++++++++++++++++++++++++++++++++++++++++++++++++++++++++++",
"++++++++++++++++++++++++++++++++++++++++++++++++++++++++++++",
"++++++++++++++++++++++++++++++++++++++++++++++++++++++++++++",
"++++++++++++++++++++++++++++++++++++++++++++++++++++++++++++",
"............................................................",
"............................................................"};
