/* XPM */
static char * title_2_active_xpm[] = {
"16 48 3 1",
" 	c None",
".	c #4caf50",
"+	c #263238 s active_color_2",
"................",
"................",
"++++++++++++++++",
"++++++++++++++++",
"................",
"................",
"................",
"................",
"................",
"................",
"................",
"................",
"................",
"................",
"................",
"................",
"................",
"................",
"................",
"................",
"................",
"................",
"................",
"................",
"................",
"................",
"................",
"................",
"................",
"................",
"................",
"................",
"................",
"................",
"................",
"................",
"................",
"................",
"................",
"................",
"................",
"................",
"................",
"................",
"++++++++++++++++",
"++++++++++++++++",
"................",
"................"};
