#define close_hover_width 11
#define close_hover_height 11
static unsigned char close_hover_bits[] = {
   0x00, 0x00, 0xf0, 0x00, 0x08, 0x01, 0x64, 0x02, 0xf2, 0x04, 0xfa, 0x05,
   0xfa, 0x05, 0xf2, 0x04, 0x64, 0x02, 0x08, 0x01, 0xf0, 0x00 };
