#define close_width 11
#define close_height 11
static unsigned char close_bits[] = {
   0x00, 0x00, 0x00, 0x00, 0xf0, 0x00, 0x08, 0x01, 0x64, 0x02, 0xf4, 0x02,
   0xf4, 0x02, 0x64, 0x02, 0x08, 0x01, 0xf0, 0x00, 0x00, 0x00 };
