#define close_disabled_width 11
#define close_disabled_height 11
static unsigned char close_disabled_bits[] = {
   0x00, 0x00, 0x00, 0x00, 0xf0, 0x00, 0x08, 0x01, 0x04, 0x02, 0x04, 0x02,
   0x04, 0x02, 0x04, 0x02, 0x08, 0x01, 0xf0, 0x00, 0x00, 0x00 };
