#define close_pressed_width 11
#define close_pressed_height 11
static unsigned char close_pressed_bits[] = {
   0x00, 0x00, 0x00, 0x00, 0x00, 0x00, 0x00, 0x00, 0x60, 0x00, 0xf0, 0x00,
   0xf0, 0x00, 0x60, 0x00, 0x00, 0x00, 0x00, 0x00, 0x00, 0x00 };
