#define iconify_hover_width 11
#define iconify_hover_height 11
static unsigned char iconify_hover_bits[] = {
   0x00, 0x00, 0x00, 0x00, 0x00, 0x00, 0x60, 0x00, 0xf0, 0x00, 0xf8, 0x01,
   0xfa, 0x05, 0xf2, 0x04, 0x64, 0x02, 0x08, 0x01, 0xf0, 0x00 };
