#define iconify_width 11
#define iconify_height 11
static unsigned char iconify_bits[] = {
   0x00, 0x00, 0x00, 0x00, 0x00, 0x00, 0x00, 0x00, 0x60, 0x00, 0xf0, 0x00,
   0xf4, 0x02, 0x64, 0x02, 0x08, 0x01, 0xf0, 0x00, 0x00, 0x00 };
