#define max_width 11
#define max_height 11
static unsigned char max_bits[] = {
   0x00, 0x00, 0x00, 0x00, 0xf0, 0x00, 0x08, 0x01, 0x64, 0x02, 0xf4, 0x02,
   0xf0, 0x00, 0x60, 0x00, 0x00, 0x00, 0x00, 0x00, 0x00, 0x00 };
