#define max_hover_width 11
#define max_hover_height 11
static unsigned char max_hover_bits[] = {
   0x00, 0x00, 0xf0, 0x00, 0x08, 0x01, 0x64, 0x02, 0xf2, 0x04, 0xfa, 0x05,
   0xf8, 0x01, 0xf0, 0x00, 0x60, 0x00, 0x00, 0x00, 0x00, 0x00 };
