#define shade_hover_width 11
#define shade_hover_height 11
static unsigned char shade_hover_bits[] = {
   0x00, 0x00, 0xf0, 0x00, 0x08, 0x01, 0x04, 0x02, 0x02, 0x04, 0x02, 0x04,
   0x00, 0x00, 0x00, 0x00, 0x00, 0x00, 0x00, 0x00, 0x00, 0x00 };
