/* XPM */
static char * shade_toggled_pressed_xpm[] = {
"30 22 4 1",
" 	c None",
".	c #263238 s active_color_2",
"+	c #009688",
"@	c #FFFFFF",
"..............................",
"++++++++++++++++++++++++++++++",
"++++++++++++++++++++++++++++++",
"++++++++++++++++++++++++++++++",
"++++++++++++++++++++++++++++++",
"++++++++++++++++++++++++++++++",
"++++++++@@@@@@@@@@@@@@++++++++",
"++++++++@@@@@@@@@@@@@@++++++++",
"++++++++++++++++++++++++++++++",
"+++++++++@@++++++++@@+++++++++",
"+++++++++@@@++++++@@@+++++++++",
"++++++++++@@@++++@@@++++++++++",
"+++++++++++@@@++@@@+++++++++++",
"++++++++++++@@@@@@++++++++++++",
"+++++++++++++@@@@+++++++++++++",
"++++++++++++++@@++++++++++++++",
"++++++++++++++++++++++++++++++",
"++++++++++++++++++++++++++++++",
"++++++++++++++++++++++++++++++",
"++++++++++++++++++++++++++++++",
"++++++++++++++++++++++++++++++",
".............................."};
