/* XPM */
static char * top_right_inactive_xpm[] = {
"10 48 3 1",
" 	c None",
".	c #009688",
"+	c #263238 s active_color_2",
"........  ",
"+++++++.. ",
"+++++++...",
"+++++++...",
"+++++++...",
"+++++++...",
"+++++++...",
"+++++++...",
"+++++++...",
"+++++++...",
"+++++++...",
"+++++++...",
"+++++++...",
"+++++++...",
"+++++++...",
"+++++++...",
"+++++++...",
"+++++++...",
"+++++++...",
"+++++++...",
"+++++++...",
"+++++++...",
"+++++++...",
"+++++++...",
"+++++++...",
"+++++++...",
"+++++++...",
"+++++++...",
"+++++++...",
"+++++++...",
"+++++++...",
"+++++++...",
"+++++++...",
"+++++++...",
"+++++++...",
"+++++++...",
"+++++++...",
"+++++++...",
"+++++++...",
"+++++++...",
"+++++++...",
"+++++++...",
"+++++++...",
"+++++++...",
"+++++++...",
"+++++++...",
"+++++++...",
"+++++++..."};
