/* XPM */
static char * title_2_active_xpm[] = {
"8 24 3 1",
" 	c None",
".	c #43a8f9 s active_color_1",
"+	c #263238 s active_color_2",
"........",
"++++++++",
"........",
"........",
"........",
"........",
"........",
"........",
"........",
"........",
"........",
"........",
"........",
"........",
"........",
"........",
"........",
"........",
"........",
"........",
"........",
"........",
"++++++++",
"........"};
