/* XPM */
static char * bottom_right_active_xpm[] = {
"29 29 3 1",
" 	c None",
".	c #263238 s active_color_2",
"+	c #f44336",
"                   .......+++",
"                   .......+++",
"                   .......+++",
"                   .......+++",
"                   .......+++",
"                   .......+++",
"                   .......+++",
"                   .......+++",
"                   .......+++",
"                   .......+++",
"                   .......+++",
"                   .......+++",
"                   .......+++",
"                   .......+++",
"                   .......+++",
"                   .......+++",
"                   .......+++",
"                   .......+++",
"                   .......+++",
"..........................+++",
"..........................+++",
"..........................+++",
"..........................+++",
"..........................+++",
"..........................+++",
"..........................+++",
"+++++++++++++++++++++++++++++",
"+++++++++++++++++++++++++++++",
"+++++++++++++++++++++++++++++"};
