/* XPM */
static char * stick_toggled_active_xpm[] = {
"30 22 4 1",
" 	c None",
".	c #263238 s active_color_2",
"+	c #f44336",
"@	c #FFFFFF",
"..............................",
"++++++++++++++++++++++++++++++",
"++++++++++++++++++++++++++++++",
"++++++++++++++++++++++++++++++",
"++++++++++++++++++++++++++++++",
"++++++++++++++++++++++++++++++",
"+++++++++@@@@@@@@@@@@+++++++++",
"++++++++@@@@@@@@@@@@@@++++++++",
"++++++++@@++++++++++@@++++++++",
"++++++++@@+@@@@@@@@+@@++++++++",
"++++++++@@+@@@@@@@@+@@++++++++",
"++++++++@@+@@@@@@@@+@@++++++++",
"++++++++@@+@@@@@@@@+@@++++++++",
"++++++++@@++++++++++@@++++++++",
"++++++++@@@@@@@@@@@@@@++++++++",
"+++++++++@@@@@@@@@@@@+++++++++",
"++++++++++++++++++++++++++++++",
"++++++++++++++++++++++++++++++",
"++++++++++++++++++++++++++++++",
"++++++++++++++++++++++++++++++",
"++++++++++++++++++++++++++++++",
".............................."};
