/* XPM */
static char * top_left_inactive_xpm[] = {
"8 48 3 1",
" 	c None",
".	c #f44336",
"+	c #263238 s active_color_2",
"........",
".+++++++",
".+++++++",
".+++++++",
".+++++++",
".+++++++",
".+++++++",
".+++++++",
".+++++++",
".+++++++",
".+++++++",
".+++++++",
".+++++++",
".+++++++",
".+++++++",
".+++++++",
".+++++++",
".+++++++",
".+++++++",
".+++++++",
".+++++++",
".+++++++",
".+++++++",
".+++++++",
".+++++++",
".+++++++",
".+++++++",
".+++++++",
".+++++++",
".+++++++",
".+++++++",
".+++++++",
".+++++++",
".+++++++",
".+++++++",
".+++++++",
".+++++++",
".+++++++",
".+++++++",
".+++++++",
".+++++++",
".+++++++",
".+++++++",
".+++++++",
".+++++++",
".+++++++",
".+++++++",
".+++++++"};
