/* XPM */
static char * shade_toggled_prelight_xpm[] = {
"60 44 4 1",
" 	c None",
".	c #263238 s active_color_2",
"+	c #ff9800",
"@	c #FFFFFF",
"............................................................",
"............................................................",
"++++++++++++++++++++++++++++++++++++++++++++++++++++++++++++",
"++++++++++++++++++++++++++++++++++++++++++++++++++++++++++++",
"++++++++++++++++++++++++++++++++++++++++++++++++++++++++++++",
"++++++++++++++++++++++++++++++++++++++++++++++++++++++++++++",
"++++++++++++++++++++++++++++++++++++++++++++++++++++++++++++",
"++++++++++++++++++++++++++++++++++++++++++++++++++++++++++++",
"++++++++++++++++++++++++++++++++++++++++++++++++++++++++++++",
"++++++++++++++++++++++++++++++++++++++++++++++++++++++++++++",
"++++++++++++++++++++++++++++++++++++++++++++++++++++++++++++",
"++++++++++++++++++++++++++++++++++++++++++++++++++++++++++++",
"++++++++++++++++@@@@@@@@@@@@@@@@@@@@@@@@@@@@++++++++++++++++",
"++++++++++++++++@@@@@@@@@@@@@@@@@@@@@@@@@@@@++++++++++++++++",
"++++++++++++++++@@@@@@@@@@@@@@@@@@@@@@@@@@@@++++++++++++++++",
"++++++++++++++++@@@@@@@@@@@@@@@@@@@@@@@@@@@@++++++++++++++++",
"++++++++++++++++++++++++++++++++++++++++++++++++++++++++++++",
"++++++++++++++++++++++++++++++++++++++++++++++++++++++++++++",
"++++++++++++++++++@@@@++++++++++++++++@@@@++++++++++++++++++",
"++++++++++++++++++@@@@@++++++++++++++@@@@@++++++++++++++++++",
"++++++++++++++++++@@@@@@++++++++++++@@@@@@++++++++++++++++++",
"++++++++++++++++++@@@@@@@++++++++++@@@@@@@++++++++++++++++++",
"+++++++++++++++++++@@@@@@@++++++++@@@@@@@+++++++++++++++++++",
"++++++++++++++++++++@@@@@@@++++++@@@@@@@++++++++++++++++++++",
"+++++++++++++++++++++@@@@@@@++++@@@@@@@+++++++++++++++++++++",
"++++++++++++++++++++++@@@@@@@++@@@@@@@++++++++++++++++++++++",
"+++++++++++++++++++++++@@@@@@@@@@@@@@+++++++++++++++++++++++",
"++++++++++++++++++++++++@@@@@@@@@@@@++++++++++++++++++++++++",
"+++++++++++++++++++++++++@@@@@@@@@@+++++++++++++++++++++++++",
"++++++++++++++++++++++++++@@@@@@@@++++++++++++++++++++++++++",
"+++++++++++++++++++++++++++@@@@@@+++++++++++++++++++++++++++",
"++++++++++++++++++++++++++++@@@@++++++++++++++++++++++++++++",
"++++++++++++++++++++++++++++++++++++++++++++++++++++++++++++",
"++++++++++++++++++++++++++++++++++++++++++++++++++++++++++++",
"++++++++++++++++++++++++++++++++++++++++++++++++++++++++++++",
"++++++++++++++++++++++++++++++++++++++++++++++++++++++++++++",
"++++++++++++++++++++++++++++++++++++++++++++++++++++++++++++",
"++++++++++++++++++++++++++++++++++++++++++++++++++++++++++++",
"++++++++++++++++++++++++++++++++++++++++++++++++++++++++++++",
"++++++++++++++++++++++++++++++++++++++++++++++++++++++++++++",
"++++++++++++++++++++++++++++++++++++++++++++++++++++++++++++",
"++++++++++++++++++++++++++++++++++++++++++++++++++++++++++++",
"............................................................",
"............................................................"};
