/* XPM */
static char * shade_toggled_inactive_xpm[] = {
"30 22 3 1",
" 	c None",
".	c #263238 s active_color_2",
"+	c #ff9800",
"..............................",
"..............................",
"..............................",
"..............................",
"..............................",
"..............................",
"........++++++++++++++........",
"........++++++++++++++........",
"..............................",
".........++........++.........",
".........+++......+++.........",
"..........+++....+++..........",
"...........+++..+++...........",
"............++++++............",
".............++++.............",
"..............++..............",
"..............................",
"..............................",
"..............................",
"..............................",
"..............................",
".............................."};
