/* XPM */
static char * maximize_toggled_prelight_xpm[] = {
"60 44 4 1",
" 	c None",
".	c #263238 s active_color_2",
"+	c #43a8f9",
"@	c #FFFFFF",
"............................................................",
"............................................................",
"++++++++++++++++++++++++++++++++++++++++++++++++++++++++++++",
"++++++++++++++++++++++++++++++++++++++++++++++++++++++++++++",
"++++++++++++++++++++++++++++++++++++++++++++++++++++++++++++",
"++++++++++++++++++++++++++++++++++++++++++++++++++++++++++++",
"++++++++++++++++++++++++++++++++++++++++++++++++++++++++++++",
"++++++++++++++++++++++++++++++++++++++++++++++++++++++++++++",
"++++++++++++++++++++++++++++++++++++++++++++++++++++++++++++",
"++++++++++++++++++++++++++++++++++++++++++++++++++++++++++++",
"++++++++++++++++++++++++++++++++++++++++++++++++++++++++++++",
"++++++++++++++++++++++++++++++++++++++++++++++++++++++++++++",
"++++++++++++++++++++@@@@@@@@@@@@@@@@@@@@@@@@++++++++++++++++",
"++++++++++++++++++++@@@@@@@@@@@@@@@@@@@@@@@@++++++++++++++++",
"++++++++++++++++++++@@@@@@@@@@@@@@@@@@@@@@@@++++++++++++++++",
"++++++++++++++++++++@@@@@@@@@@@@@@@@@@@@@@@@++++++++++++++++",
"++++++++++++++++++++++++++++++++++++++++@@@@++++++++++++++++",
"++++++++++++++++++++++++++++++++++++++++@@@@++++++++++++++++",
"++++++++++++++++@@@@@@@@@@@@@@@@@@@@@@++@@@@++++++++++++++++",
"++++++++++++++++@@@@@@@@@@@@@@@@@@@@@@++@@@@++++++++++++++++",
"++++++++++++++++@@@@@@@@@@@@@@@@@@@@@@++@@@@++++++++++++++++",
"++++++++++++++++@@@@@@@@@@@@@@@@@@@@@@++@@@@++++++++++++++++",
"++++++++++++++++@@@@++++++++++++++@@@@++@@@@++++++++++++++++",
"++++++++++++++++@@@@++++++++++++++@@@@++@@@@++++++++++++++++",
"++++++++++++++++@@@@++++++++++++++@@@@++@@@@++++++++++++++++",
"++++++++++++++++@@@@++++++++++++++@@@@++@@@@++++++++++++++++",
"++++++++++++++++@@@@++++++++++++++@@@@++@@@@++++++++++++++++",
"++++++++++++++++@@@@++++++++++++++@@@@++@@@@++++++++++++++++",
"++++++++++++++++@@@@@@@@@@@@@@@@@@@@@@++++++++++++++++++++++",
"++++++++++++++++@@@@@@@@@@@@@@@@@@@@@@++++++++++++++++++++++",
"++++++++++++++++@@@@@@@@@@@@@@@@@@@@@@++++++++++++++++++++++",
"++++++++++++++++@@@@@@@@@@@@@@@@@@@@@@++++++++++++++++++++++",
"++++++++++++++++++++++++++++++++++++++++++++++++++++++++++++",
"++++++++++++++++++++++++++++++++++++++++++++++++++++++++++++",
"++++++++++++++++++++++++++++++++++++++++++++++++++++++++++++",
"++++++++++++++++++++++++++++++++++++++++++++++++++++++++++++",
"++++++++++++++++++++++++++++++++++++++++++++++++++++++++++++",
"++++++++++++++++++++++++++++++++++++++++++++++++++++++++++++",
"++++++++++++++++++++++++++++++++++++++++++++++++++++++++++++",
"++++++++++++++++++++++++++++++++++++++++++++++++++++++++++++",
"++++++++++++++++++++++++++++++++++++++++++++++++++++++++++++",
"++++++++++++++++++++++++++++++++++++++++++++++++++++++++++++",
"............................................................",
"............................................................"};
