/* XPM */
static char * title_1_active_xpm[] = {
"16 48 3 1",
" 	c None",
".	c #43a8f9",
"+	c #263238 s active_color_2",
"................",
"................",
"++++++++++++++++",
"++++++++++++++++",
"..++..++..++..++",
"..++..++..++..++",
"..++..++..++..++",
"..++..++..++..++",
"..++..++..++..++",
"..++..++..++..++",
"..++..++..++..++",
"..++..++..++..++",
"..++..++..++..++",
"..++..++..++..++",
"..++..++..++..++",
"..++..++..++..++",
"..++..++..++..++",
"..++..++..++..++",
"..++..++..++..++",
"..++..++..++..++",
"..++..++..++..++",
"..++..++..++..++",
"..++..++..++..++",
"..++..++..++..++",
"..++..++..++..++",
"..++..++..++..++",
"..++..++..++..++",
"..++..++..++..++",
"..++..++..++..++",
"..++..++..++..++",
"..++..++..++..++",
"..++..++..++..++",
"..++..++..++..++",
"..++..++..++..++",
"..++..++..++..++",
"..++..++..++..++",
"..++..++..++..++",
"..++..++..++..++",
"..++..++..++..++",
"..++..++..++..++",
"..++..++..++..++",
"..++..++..++..++",
"..++..++..++..++",
"..++..++..++..++",
"++++++++++++++++",
"++++++++++++++++",
"................",
"................"};
