/* XPM */
static char * top_left_active_xpm[] = {
"16 96 3 1",
" 	c None",
".	c #43a8f9",
"+	c #263238 s active_color_2",
"................",
"................",
"..++++++++++++++",
"..++++++++++++++",
"..++++++++++++++",
"..++++++++++++++",
"..++++++++++++++",
"..++++++++++++++",
"..++++++++++++++",
"..++++++++++++++",
"..++++++++++++++",
"..++++++++++++++",
"..++++++++++++++",
"..++++++++++++++",
"..++++++++++++++",
"..++++++++++++++",
"..++++++++++++++",
"..++++++++++++++",
"..++++++++++++++",
"..++++++++++++++",
"..++++++++++++++",
"..++++++++++++++",
"..++++++++++++++",
"..++++++++++++++",
"..++++++++++++++",
"..++++++++++++++",
"..++++++++++++++",
"..++++++++++++++",
"..++++++++++++++",
"..++++++++++++++",
"..++++++++++++++",
"..++++++++++++++",
"..++++++++++++++",
"..++++++++++++++",
"..++++++++++++++",
"..++++++++++++++",
"..++++++++++++++",
"..++++++++++++++",
"..++++++++++++++",
"..++++++++++++++",
"..++++++++++++++",
"..++++++++++++++",
"..++++++++++++++",
"..++++++++++++++",
"..++++++++++++++",
"..++++++++++++++",
"................",
"................",
"..++++++++++++++",
"..++++++++++++++",
"..++++++++++++++",
"..++++++++++++++",
"..++++++++++++++",
"..++++++++++++++",
"..++++++++++++++",
"..++++++++++++++",
"..++++++++++++++",
"..++++++++++++++",
"..++++++++++++++",
"..++++++++++++++",
"..++++++++++++++",
"..++++++++++++++",
"..++++++++++++++",
"..++++++++++++++",
"..++++++++++++++",
"..++++++++++++++",
"..++++++++++++++",
"..++++++++++++++",
"..++++++++++++++",
"..++++++++++++++",
"..++++++++++++++",
"..++++++++++++++",
"..++++++++++++++",
"..++++++++++++++",
"..++++++++++++++",
"..++++++++++++++",
"..++++++++++++++",
"..++++++++++++++",
"..++++++++++++++",
"..++++++++++++++",
"..++++++++++++++",
"..++++++++++++++",
"..++++++++++++++",
"..++++++++++++++",
"..++++++++++++++",
"..++++++++++++++",
"..++++++++++++++",
"..++++++++++++++",
"..++++++++++++++",
"..++++++++++++++",
"..++++++++++++++",
"..++++++++++++++",
"..++++++++++++++",
"..++++++++++++++",
"..++++++++++++++",
"..++++++++++++++"};
