#define max_pressed_width 9
#define max_pressed_height 9
static unsigned char max_pressed_bits[] = {
   0xff, 0x01, 0xff, 0x01, 0x01, 0x01, 0x01, 0x01, 0x01, 0x01, 0x01, 0x01,
   0x01, 0x01, 0x01, 0x01, 0xff, 0x01 };
