/* XPM */
static char * hide_inactive_xpm[] = {
"60 44 3 1",
" 	c None",
".	c #263238 s active_color_2",
"+	c #43a8f9 s active_color_1",
"............................................................",
"............................................................",
"............................................................",
"............................................................",
"............................................................",
"............................................................",
"............................................................",
"............................................................",
"............................................................",
"............................................................",
"............................................................",
"............................................................",
"............................................................",
"............................................................",
"............................................................",
"............................................................",
"............................................................",
"............................................................",
"............................................................",
"............................................................",
"................++++++++++++++++++++++++++++................",
"................++++++++++++++++++++++++++++................",
"................++++++++++++++++++++++++++++................",
"................++++++++++++++++++++++++++++................",
"............................................................",
"............................................................",
"............................................................",
"............................................................",
"............................................................",
"............................................................",
"............................................................",
"............................................................",
"............................................................",
"............................................................",
"............................................................",
"............................................................",
"............................................................",
"............................................................",
"............................................................",
"............................................................",
"............................................................",
"............................................................",
"............................................................",
"............................................................"};
