/* XPM */
static char * title_4_active_xpm[] = {
"8 24 3 1",
" 	c None",
".	c #00bcd4",
"+	c #263238 s active_color_2",
"........",
"++++++++",
"........",
"........",
"........",
"........",
"........",
"........",
"........",
"........",
"........",
"........",
"........",
"........",
"........",
"........",
"........",
"........",
"........",
"........",
"........",
"........",
"++++++++",
"........"};
