/* XPM */
static char * maximize_active_xpm[] = {
"60 44 4 1",
" 	c None",
".	c #263238 s active_color_2",
"+	c #8bc34a",
"@	c #FFFFFF",
"............................................................",
"............................................................",
"++++++++++++++++++++++++++++++++++++++++++++++++++++++++++++",
"++++++++++++++++++++++++++++++++++++++++++++++++++++++++++++",
"++++++++++++++++++++++++++++++++++++++++++++++++++++++++++++",
"++++++++++++++++++++++++++++++++++++++++++++++++++++++++++++",
"++++++++++++++++++++++++++++++++++++++++++++++++++++++++++++",
"++++++++++++++++++++++++++++++++++++++++++++++++++++++++++++",
"++++++++++++++++++++++++++++++++++++++++++++++++++++++++++++",
"++++++++++++++++++++++++++++++++++++++++++++++++++++++++++++",
"++++++++++++++++++++++++++++++++++++++++++++++++++++++++++++",
"++++++++++++++++++++++++++++++++++++++++++++++++++++++++++++",
"++++++++++++++++@@@@@@@@@@@@@@@@@@@@@@@@@@@@++++++++++++++++",
"++++++++++++++++@@@@@@@@@@@@@@@@@@@@@@@@@@@@++++++++++++++++",
"++++++++++++++++@@@@@@@@@@@@@@@@@@@@@@@@@@@@++++++++++++++++",
"++++++++++++++++@@@@@@@@@@@@@@@@@@@@@@@@@@@@++++++++++++++++",
"++++++++++++++++@@@@++++++++++++++++++++@@@@++++++++++++++++",
"++++++++++++++++@@@@++++++++++++++++++++@@@@++++++++++++++++",
"++++++++++++++++@@@@++++++++++++++++++++@@@@++++++++++++++++",
"++++++++++++++++@@@@++++++++++++++++++++@@@@++++++++++++++++",
"++++++++++++++++@@@@++++++++++++++++++++@@@@++++++++++++++++",
"++++++++++++++++@@@@++++++++++++++++++++@@@@++++++++++++++++",
"++++++++++++++++@@@@++++++++++++++++++++@@@@++++++++++++++++",
"++++++++++++++++@@@@++++++++++++++++++++@@@@++++++++++++++++",
"++++++++++++++++@@@@++++++++++++++++++++@@@@++++++++++++++++",
"++++++++++++++++@@@@++++++++++++++++++++@@@@++++++++++++++++",
"++++++++++++++++@@@@++++++++++++++++++++@@@@++++++++++++++++",
"++++++++++++++++@@@@++++++++++++++++++++@@@@++++++++++++++++",
"++++++++++++++++@@@@@@@@@@@@@@@@@@@@@@@@@@@@++++++++++++++++",
"++++++++++++++++@@@@@@@@@@@@@@@@@@@@@@@@@@@@++++++++++++++++",
"++++++++++++++++@@@@@@@@@@@@@@@@@@@@@@@@@@@@++++++++++++++++",
"++++++++++++++++@@@@@@@@@@@@@@@@@@@@@@@@@@@@++++++++++++++++",
"++++++++++++++++++++++++++++++++++++++++++++++++++++++++++++",
"++++++++++++++++++++++++++++++++++++++++++++++++++++++++++++",
"++++++++++++++++++++++++++++++++++++++++++++++++++++++++++++",
"++++++++++++++++++++++++++++++++++++++++++++++++++++++++++++",
"++++++++++++++++++++++++++++++++++++++++++++++++++++++++++++",
"++++++++++++++++++++++++++++++++++++++++++++++++++++++++++++",
"++++++++++++++++++++++++++++++++++++++++++++++++++++++++++++",
"++++++++++++++++++++++++++++++++++++++++++++++++++++++++++++",
"++++++++++++++++++++++++++++++++++++++++++++++++++++++++++++",
"++++++++++++++++++++++++++++++++++++++++++++++++++++++++++++",
"............................................................",
"............................................................"};
