/* XPM */
static char * top_left_inactive_xpm[] = {
"16 96 3 1",
" 	c None",
".	c #8bc34a",
"+	c #263238 s active_color_2",
"................",
"................",
"..++++++++++++++",
"..++++++++++++++",
"..++++++++++++++",
"..++++++++++++++",
"..++++++++++++++",
"..++++++++++++++",
"..++++++++++++++",
"..++++++++++++++",
"..++++++++++++++",
"..++++++++++++++",
"..++++++++++++++",
"..++++++++++++++",
"..++++++++++++++",
"..++++++++++++++",
"..++++++++++++++",
"..++++++++++++++",
"..++++++++++++++",
"..++++++++++++++",
"..++++++++++++++",
"..++++++++++++++",
"..++++++++++++++",
"..++++++++++++++",
"..++++++++++++++",
"..++++++++++++++",
"..++++++++++++++",
"..++++++++++++++",
"..++++++++++++++",
"..++++++++++++++",
"..++++++++++++++",
"..++++++++++++++",
"..++++++++++++++",
"..++++++++++++++",
"..++++++++++++++",
"..++++++++++++++",
"..++++++++++++++",
"..++++++++++++++",
"..++++++++++++++",
"..++++++++++++++",
"..++++++++++++++",
"..++++++++++++++",
"..++++++++++++++",
"..++++++++++++++",
"..++++++++++++++",
"..++++++++++++++",
"..++++++++++++++",
"..++++++++++++++",
"..++++++++++++++",
"..++++++++++++++",
"..++++++++++++++",
"..++++++++++++++",
"..++++++++++++++",
"..++++++++++++++",
"..++++++++++++++",
"..++++++++++++++",
"..++++++++++++++",
"..++++++++++++++",
"..++++++++++++++",
"..++++++++++++++",
"..++++++++++++++",
"..++++++++++++++",
"..++++++++++++++",
"..++++++++++++++",
"..++++++++++++++",
"..++++++++++++++",
"..++++++++++++++",
"..++++++++++++++",
"..++++++++++++++",
"..++++++++++++++",
"..++++++++++++++",
"..++++++++++++++",
"..++++++++++++++",
"..++++++++++++++",
"..++++++++++++++",
"..++++++++++++++",
"..++++++++++++++",
"..++++++++++++++",
"..++++++++++++++",
"..++++++++++++++",
"..++++++++++++++",
"..++++++++++++++",
"..++++++++++++++",
"..++++++++++++++",
"..++++++++++++++",
"..++++++++++++++",
"..++++++++++++++",
"..++++++++++++++",
"..++++++++++++++",
"..++++++++++++++",
"..++++++++++++++",
"..++++++++++++++",
"..++++++++++++++",
"..++++++++++++++",
"..++++++++++++++",
"..++++++++++++++"};
