/* XPM */
static char * bottom_right_inactive_xpm[] = {
"58 58 3 1",
" 	c None",
".	c #263238 s active_color_2",
"+	c #afb42b",
"                                      ..............++++++",
"                                      ..............++++++",
"                                      ..............++++++",
"                                      ..............++++++",
"                                      ..............++++++",
"                                      ..............++++++",
"                                      ..............++++++",
"                                      ..............++++++",
"                                      ..............++++++",
"                                      ..............++++++",
"                                      ..............++++++",
"                                      ..............++++++",
"                                      ..............++++++",
"                                      ..............++++++",
"                                      ..............++++++",
"                                      ..............++++++",
"                                      ..............++++++",
"                                      ..............++++++",
"                                      ..............++++++",
"                                      ..............++++++",
"                                      ..............++++++",
"                                      ..............++++++",
"                                      ..............++++++",
"                                      ..............++++++",
"                                      ..............++++++",
"                                      ..............++++++",
"                                      ..............++++++",
"                                      ..............++++++",
"                                      ..............++++++",
"                                      ..............++++++",
"                                      ..............++++++",
"                                      ..............++++++",
"                                      ..............++++++",
"                                      ..............++++++",
"                                      ..............++++++",
"                                      ..............++++++",
"                                      ..............++++++",
"                                      ..............++++++",
"....................................................++++++",
"....................................................++++++",
"....................................................++++++",
"....................................................++++++",
"....................................................++++++",
"....................................................++++++",
"....................................................++++++",
"....................................................++++++",
"....................................................++++++",
"....................................................++++++",
"....................................................++++++",
"....................................................++++++",
"....................................................++++++",
"....................................................++++++",
"++++++++++++++++++++++++++++++++++++++++++++++++++++++++++",
"++++++++++++++++++++++++++++++++++++++++++++++++++++++++++",
"++++++++++++++++++++++++++++++++++++++++++++++++++++++++++",
"++++++++++++++++++++++++++++++++++++++++++++++++++++++++++",
"++++++++++++++++++++++++++++++++++++++++++++++++++++++++++",
"++++++++++++++++++++++++++++++++++++++++++++++++++++++++++"};
