/* XPM */
static char * title_5_active_xpm[] = {
"16 48 3 1",
" 	c None",
".	c #afb42b",
"+	c #263238 s active_color_2",
"................",
"................",
"++++++++++++++++",
"++++++++++++++++",
"++..++..++..++..",
"++..++..++..++..",
"++..++..++..++..",
"++..++..++..++..",
"++..++..++..++..",
"++..++..++..++..",
"++..++..++..++..",
"++..++..++..++..",
"++..++..++..++..",
"++..++..++..++..",
"++..++..++..++..",
"++..++..++..++..",
"++..++..++..++..",
"++..++..++..++..",
"++..++..++..++..",
"++..++..++..++..",
"++..++..++..++..",
"++..++..++..++..",
"++..++..++..++..",
"++..++..++..++..",
"++..++..++..++..",
"++..++..++..++..",
"++..++..++..++..",
"++..++..++..++..",
"++..++..++..++..",
"++..++..++..++..",
"++..++..++..++..",
"++..++..++..++..",
"++..++..++..++..",
"++..++..++..++..",
"++..++..++..++..",
"++..++..++..++..",
"++..++..++..++..",
"++..++..++..++..",
"++..++..++..++..",
"++..++..++..++..",
"++..++..++..++..",
"++..++..++..++..",
"++..++..++..++..",
"++..++..++..++..",
"++++++++++++++++",
"++++++++++++++++",
"................",
"................"};
