/* XPM */
static char * bottom_inactive_xpm[] = {
"24 10 3 1",
" 	c None",
".	c #263238 s active_color_2",
"+	c #4caf50",
"........................",
"........................",
"........................",
"........................",
"........................",
"........................",
"........................",
"++++++++++++++++++++++++",
"++++++++++++++++++++++++",
"++++++++++++++++++++++++"};
