/* XPM */
static char * right_inactive_xpm[] = {
"10 24 3 1",
" 	c None",
".	c #263238 s active_color_2",
"+	c #8bc34a",
".......+++",
".......+++",
".......+++",
".......+++",
".......+++",
".......+++",
".......+++",
".......+++",
".......+++",
".......+++",
".......+++",
".......+++",
".......+++",
".......+++",
".......+++",
".......+++",
".......+++",
".......+++",
".......+++",
".......+++",
".......+++",
".......+++",
".......+++",
".......+++"};
