/* XPM */
static char * title_1_active_xpm[] = {
"8 24 3 1",
" 	c None",
".	c #8bc34a",
"+	c #263238 s active_color_2",
"........",
"++++++++",
".+.+.+.+",
".+.+.+.+",
".+.+.+.+",
".+.+.+.+",
".+.+.+.+",
".+.+.+.+",
".+.+.+.+",
".+.+.+.+",
".+.+.+.+",
".+.+.+.+",
".+.+.+.+",
".+.+.+.+",
".+.+.+.+",
".+.+.+.+",
".+.+.+.+",
".+.+.+.+",
".+.+.+.+",
".+.+.+.+",
".+.+.+.+",
".+.+.+.+",
"++++++++",
"........"};
