/* XPM */
static char * right_inactive_xpm[] = {
"20 48 3 1",
" 	c None",
".	c #263238 s active_color_2",
"+	c #ff7043",
"..............++++++",
"..............++++++",
"..............++++++",
"..............++++++",
"..............++++++",
"..............++++++",
"..............++++++",
"..............++++++",
"..............++++++",
"..............++++++",
"..............++++++",
"..............++++++",
"..............++++++",
"..............++++++",
"..............++++++",
"..............++++++",
"..............++++++",
"..............++++++",
"..............++++++",
"..............++++++",
"..............++++++",
"..............++++++",
"..............++++++",
"..............++++++",
"..............++++++",
"..............++++++",
"..............++++++",
"..............++++++",
"..............++++++",
"..............++++++",
"..............++++++",
"..............++++++",
"..............++++++",
"..............++++++",
"..............++++++",
"..............++++++",
"..............++++++",
"..............++++++",
"..............++++++",
"..............++++++",
"..............++++++",
"..............++++++",
"..............++++++",
"..............++++++",
"..............++++++",
"..............++++++",
"..............++++++",
"..............++++++"};
