/* XPM */
static char * bottom_left_inactive_xpm[] = {
"26 26 3 1",
" 	c None",
".	c #43a8f9",
"+	c #263238 s active_color_2",
".+++++++++                ",
".+++++++++                ",
".+++++++++                ",
".+++++++++                ",
".+++++++++                ",
".+++++++++                ",
".+++++++++                ",
".+++++++++                ",
".+++++++++                ",
".+++++++++                ",
".+++++++++                ",
".+++++++++                ",
".+++++++++                ",
".+++++++++                ",
".+++++++++                ",
".+++++++++                ",
".+++++++++++++++++++++++++",
".+++++++++++++++++++++++++",
".+++++++++++++++++++++++++",
".+++++++++++++++++++++++++",
".+++++++++++++++++++++++++",
".+++++++++++++++++++++++++",
".+++++++++++++++++++++++++",
"..........................",
" .........................",
"  ........................"};
