#define close_width 11
#define close_height 11
static unsigned char close_bits[] = {
   0x00, 0x00, 0x00, 0x00, 0x8c, 0x01, 0x52, 0x02, 0x50, 0x00, 0x20, 0x00,
   0x20, 0x00, 0x50, 0x00, 0x52, 0x02, 0x8c, 0x01, 0x00, 0x00 };
