/* XPM */
static char * title_3_active_xpm[] = {
"16 48 3 1",
" 	c None",
".	c #00bcd4",
"+	c #263238 s active_color_2",
"................",
"................",
"++++++++++++++++",
"++++++++++++++++",
"................",
"................",
"................",
"................",
"................",
"................",
"................",
"................",
"................",
"................",
"................",
"................",
"................",
"................",
"................",
"................",
"................",
"................",
"................",
"................",
"................",
"................",
"................",
"................",
"................",
"................",
"................",
"................",
"................",
"................",
"................",
"................",
"................",
"................",
"................",
"................",
"................",
"................",
"................",
"................",
"++++++++++++++++",
"++++++++++++++++",
"................",
"................"};
